<svg width="30" height="30" viewBox="0 0 30 30" fill="none" xmlns="http://www.w3.org/2000/svg">
<g clip-path="url(#clip0_2940_25338)">
<path d="M24.3742 15.7152L14.9992 25.0002L5.62416 15.7152C5.00579 15.1135 4.51871 14.3902 4.19359 13.591C3.86847 12.7918 3.71236 11.9339 3.73508 11.0714C3.7578 10.2089 3.95886 9.36039 4.3256 8.57939C4.69235 7.79839 5.21682 7.10179 5.86601 6.53345C6.5152 5.9651 7.27504 5.53733 8.09767 5.27707C8.9203 5.01681 9.78791 4.9297 10.6459 5.02122C11.5038 5.11274 12.3335 5.38092 13.0827 5.80885C13.832 6.23679 14.4845 6.81522 14.9992 7.50772C15.5161 6.82025 16.1693 6.24687 16.918 5.82348C17.6667 5.40008 18.4948 5.13578 19.3503 5.04712C20.2059 4.95846 21.0705 5.04734 21.8901 5.30821C22.7097 5.56908 23.4667 5.99631 24.1136 6.56318C24.7605 7.13004 25.2834 7.82433 25.6497 8.60259C26.0159 9.38085 26.2176 10.2263 26.242 11.0861C26.2665 11.9459 26.1132 12.8015 25.7918 13.5993C25.4704 14.3971 24.9878 15.12 24.3742 15.7227" stroke="#111111" stroke-width="2" stroke-linecap="round" stroke-linejoin="round"/>
</g>
<defs>
<clipPath id="clip0_2940_25338">
<rect width="30" height="30" fill="white"/>
</clipPath>
</defs>
</svg>
