<svg width="24" height="24" viewBox="0 0 24 24" fill="none" xmlns="http://www.w3.org/2000/svg">
<g clip-path="url(#clip0_2698_21344)">
<path d="M19.4993 12.5722L11.9993 20.0002L4.49932 12.5722C4.00463 12.0908 3.61497 11.5122 3.35487 10.8728C3.09478 10.2334 2.96989 9.54713 2.98806 8.85711C3.00624 8.16709 3.16709 7.48831 3.46048 6.86351C3.75388 6.23871 4.17346 5.68143 4.69281 5.22676C5.21216 4.77208 5.82003 4.42987 6.47814 4.22166C7.13624 4.01345 7.83033 3.94376 8.51669 4.01698C9.20306 4.0902 9.86682 4.30473 10.4662 4.64708C11.0656 4.98943 11.5876 5.45218 11.9993 6.00618C12.4129 5.4562 12.9355 4.9975 13.5344 4.65878C14.1334 4.32007 14.7958 4.10863 15.4803 4.0377C16.1647 3.96677 16.8564 4.03787 17.5121 4.24657C18.1678 4.45526 18.7734 4.79705 19.2909 5.25054C19.8084 5.70403 20.2268 6.25946 20.5197 6.88207C20.8127 7.50468 20.9741 8.18106 20.9936 8.86889C21.0132 9.55671 20.8906 10.2412 20.6335 10.8794C20.3763 11.5177 19.9902 12.096 19.4993 12.5782" stroke="#960101" stroke-width="2" stroke-linecap="round" stroke-linejoin="round"/>
</g>
<defs>
<clipPath id="clip0_2698_21344">
<rect width="24" height="24" fill="white"/>
</clipPath>
</defs>
</svg>
