<svg width="30" height="30" viewBox="0 0 30 30" fill="none" xmlns="http://www.w3.org/2000/svg">
<g clip-path="url(#clip0_2940_14698)">
<path d="M21.25 27.5V25" stroke="#111111" stroke-width="2" stroke-linecap="round" stroke-linejoin="round"/>
<path d="M11.25 18.75L18.75 11.25" stroke="#111111" stroke-width="2" stroke-linecap="round" stroke-linejoin="round"/>
<path d="M13.75 7.50038L14.3288 6.83038C15.501 5.65829 17.0909 4.99988 18.7486 5C20.4063 5.00012 21.996 5.65875 23.1681 6.83101C24.3402 8.00326 24.9986 9.59312 24.9985 11.2508C24.9984 12.9085 24.3398 14.4983 23.1675 15.6704L22.5 16.2504" stroke="#111111" stroke-width="2" stroke-linecap="round" stroke-linejoin="round"/>
<path d="M16.2499 22.5L15.7537 23.1675C14.5677 24.3402 12.9672 24.998 11.2993 24.998C9.63145 24.998 8.03087 24.3402 6.84493 23.1675C6.26038 22.5895 5.7963 21.9013 5.47957 21.1427C5.16284 20.3841 4.99976 19.5702 4.99976 18.7481C4.99976 17.9261 5.16284 17.1122 5.47957 16.3536C5.7963 15.595 6.26038 14.9067 6.84493 14.3288L7.49993 13.75" stroke="#111111" stroke-width="2" stroke-linecap="round" stroke-linejoin="round"/>
<path d="M25 21.25H27.5" stroke="#111111" stroke-width="2" stroke-linecap="round" stroke-linejoin="round"/>
<path d="M2.5 8.75H5" stroke="#111111" stroke-width="2" stroke-linecap="round" stroke-linejoin="round"/>
<path d="M8.75 2.5V5" stroke="#111111" stroke-width="2" stroke-linecap="round" stroke-linejoin="round"/>
</g>
<defs>
<clipPath id="clip0_2940_14698">
<rect width="30" height="30" fill="white"/>
</clipPath>
</defs>
</svg>
