<svg width="34" height="34" viewBox="0 0 34 34" fill="none" xmlns="http://www.w3.org/2000/svg">
<g clip-path="url(#clip0_2688_29778)">
<path d="M14.167 7.08333C14.167 6.33189 14.4655 5.61122 14.9969 5.07986C15.5282 4.54851 16.2489 4.25 17.0003 4.25C17.7518 4.25 18.4724 4.54851 19.0038 5.07986C19.5351 5.61122 19.8337 6.33189 19.8337 7.08333C21.4606 7.85262 22.8475 9.05013 23.8457 10.5475C24.844 12.0449 25.4159 13.7857 25.5003 15.5833V19.8333C25.6069 20.7141 25.9189 21.5575 26.411 22.2957C26.9031 23.0339 27.5617 23.6462 28.3337 24.0833H5.66699C6.43899 23.6462 7.09756 23.0339 7.58967 22.2957C8.08179 21.5575 8.39371 20.7141 8.50033 19.8333V15.5833C8.5847 13.7857 9.15667 12.0449 10.1549 10.5475C11.1532 9.05013 12.5401 7.85262 14.167 7.08333Z" stroke="#111111" stroke-width="2" stroke-linecap="round" stroke-linejoin="round"/>
<path d="M12.75 24.0834V25.5C12.75 26.6272 13.1978 27.7082 13.9948 28.5052C14.7918 29.3023 15.8728 29.75 17 29.75C18.1272 29.75 19.2082 29.3023 20.0052 28.5052C20.8022 27.7082 21.25 26.6272 21.25 25.5V24.0834" stroke="#111111" stroke-width="2" stroke-linecap="round" stroke-linejoin="round"/>
</g>
<defs>
<clipPath id="clip0_2688_29778">
<rect width="34" height="34" fill="white"/>
</clipPath>
</defs>
</svg>
