<svg width="34" height="34" viewBox="0 0 34 34" fill="none" xmlns="http://www.w3.org/2000/svg">
<g clip-path="url(#clip0_2786_14402)">
<path d="M5.66675 28.3333H11.3334L26.2084 13.4583C26.5805 13.0862 26.8756 12.6445 27.077 12.1584C27.2784 11.6722 27.382 11.1512 27.382 10.625C27.382 10.0988 27.2784 9.57774 27.077 9.09159C26.8756 8.60545 26.5805 8.16373 26.2084 7.79165C25.8363 7.41957 25.3946 7.12442 24.9085 6.92305C24.4223 6.72168 23.9013 6.61804 23.3751 6.61804C22.8489 6.61804 22.3278 6.72168 21.8417 6.92305C21.3555 7.12442 20.9138 7.41957 20.5417 7.79165L5.66675 22.6666V28.3333Z" stroke="#25245E" stroke-width="2" stroke-linecap="round" stroke-linejoin="round"/>
<path d="M19.125 9.20837L24.7917 14.875" stroke="#25245E" stroke-width="2" stroke-linecap="round" stroke-linejoin="round"/>
</g>
<defs>
<clipPath id="clip0_2786_14402">
<rect width="34" height="34" fill="white"/>
</clipPath>
</defs>
</svg>
