<?xml version="1.0" encoding="UTF-8"?>
<svg id="_레이어_1" data-name="레이어_1" xmlns="http://www.w3.org/2000/svg" version="1.1" viewBox="0 0 1920 1080">
  <!-- Generator: Adobe Illustrator 29.5.1, SVG Export Plug-In . SVG Version: 2.1.0 Build 141)  -->
  <path d="M472.19,99.95l-251.53,255.99c-27.3,27.78-42.59,65.17-42.59,104.12v427.65c0,8.91,7.22,16.13,16.13,16.13h355.8c8.91,0,16.13-7.22,16.13-16.13v-404.94c0-31.35,11.57-61.6,32.48-84.95l250.41-279.59c9.36-10.45,1.84-27.03-12.19-26.88l-353.31,3.78c-4.27.05-8.34,1.78-11.33,4.82Z"/>
  <g>
    <path d="M1061.72,765.09c0,8.24-1.5,16-4.49,23.28-2.99,7.28-7.52,13.58-13.58,18.92s-13.74,9.54-23.04,12.61c-9.3,3.07-20.25,4.61-32.86,4.61-7.76,0-14.31-.77-19.64-2.3-5.33-1.54-9.94-3.27-13.82-5.21-3.88-1.94-7.19-3.68-9.94-5.21-2.75-1.54-5.42-2.3-8-2.3s-4.73.89-6.43,2.67c-1.7,1.78-3.52,5.09-5.46,9.94h-13.82v-64.02h13.1c2.26,5.66,5.21,11.44,8.85,17.34,3.64,5.9,7.96,11.28,12.97,16.13,5.01,4.85,10.79,8.85,17.34,12,6.55,3.15,13.94,4.73,22.19,4.73,10.51,0,18.83-2.3,24.98-6.91,6.14-4.61,9.21-11.52,9.21-20.73,0-4.69-.77-9.05-2.3-13.1-1.54-4.04-4.16-7.84-7.88-11.4-3.72-3.55-8.65-6.83-14.79-9.82-6.15-2.99-13.74-5.78-22.8-8.37-18.76-5.17-33.02-12.49-42.8-21.95-9.78-9.46-14.67-20.98-14.67-34.56,0-7.43,1.37-14.59,4.12-21.46,2.75-6.87,6.87-12.97,12.37-18.31,5.49-5.34,12.33-9.58,20.49-12.73,8.16-3.15,17.66-4.73,28.49-4.73,7.43,0,13.62.77,18.55,2.3,4.93,1.54,9.17,3.27,12.73,5.21,3.55,1.94,6.58,3.68,9.09,5.21,2.5,1.54,5.05,2.3,7.64,2.3s4.73-.89,6.43-2.67c1.7-1.78,3.52-5.09,5.46-9.94h13.82v61.6h-13.1c-2.75-5.33-5.9-10.83-9.46-16.49-3.56-5.66-7.76-10.79-12.61-15.4-4.85-4.61-10.39-8.4-16.61-11.4-6.23-2.99-13.46-4.49-21.7-4.49s-14.39,2.51-18.43,7.52c-4.04,5.01-6.06,11.4-6.06,19.16,0,4.69.69,8.89,2.06,12.61,1.37,3.72,3.72,7.15,7.03,10.31,3.31,3.15,7.8,6.02,13.46,8.61,5.66,2.59,12.77,5.18,21.34,7.76,20.69,6.15,36.29,13.7,46.8,22.67,10.51,8.97,15.76,20.98,15.76,36.01Z"/>
    <path d="M1179.45,819.53c-9.94,4.93-20.33,7.4-31.16,7.4-10.03,0-19.32-1.66-27.89-4.97-8.57-3.32-16.01-7.96-22.31-13.94-6.3-5.98-11.24-13.22-14.79-21.7-3.56-8.49-5.33-17.82-5.33-28.01s1.78-19.52,5.33-28.01c3.55-8.49,8.49-15.72,14.79-21.7,6.3-5.98,13.74-10.63,22.31-13.94,8.57-3.31,17.86-4.97,27.89-4.97,3.55,0,7.03.53,10.43,1.58,3.4,1.05,6.59,2.18,9.58,3.4,2.99,1.21,5.74,2.35,8.24,3.4,2.5,1.05,4.65,1.58,6.43,1.58s3.23-.61,4.37-1.82c1.13-1.21,2.34-3.52,3.64-6.91h9.46v43.89h-8.97c-1.78-3.72-4-7.31-6.67-10.79-2.67-3.47-5.78-6.55-9.34-9.22-3.56-2.67-7.52-4.81-11.88-6.43-4.37-1.61-9.06-2.34-14.07-2.18-8.89.33-16,4.69-21.34,13.1-5.33,8.41-8,21.42-8,39.04s2.67,30.48,8,38.56c5.33,8.08,12.45,12.45,21.34,13.1,9.7.81,18.19-.65,25.46-4.37,7.27-3.72,13.9-8.73,19.89-15.03l10.43,8.24c-7.28,8.89-15.88,15.8-25.83,20.73Z"/>
    <path d="M1358.05,758.3v3.64c0,1.13-.08,2.27-.24,3.4h-94.33c.81,14.39,3.76,25.02,8.85,31.89,5.09,6.87,12.25,10.87,21.46,12,10.51,1.29,19.96.2,28.37-3.27,8.4-3.48,15.68-8.61,21.83-15.4l10.43,8.24c-7.44,9.22-16.61,16.25-27.52,21.1-10.91,4.85-23.16,7.19-36.74,7.03-10.19,0-19.44-1.82-27.77-5.46-8.33-3.64-15.44-8.57-21.34-14.79-5.9-6.22-10.51-13.46-13.82-21.7-3.32-8.24-4.97-17.13-4.97-26.67,0-10.19,1.7-19.48,5.09-27.89,3.4-8.4,8.12-15.64,14.19-21.7,6.06-6.06,13.25-10.75,21.58-14.06,8.32-3.31,17.34-4.97,27.04-4.97s18.71,1.66,27.04,4.97c8.33,3.32,15.52,8,21.58,14.06,6.06,6.06,10.79,13.3,14.19,21.7,3.4,8.41,5.09,17.7,5.09,27.89ZM1317.07,748.36c0-13.74-2.51-24.21-7.52-31.4-5.01-7.19-11.48-10.79-19.4-10.79-7.28,0-13.34,3.24-18.19,9.7-4.85,6.47-7.68,17.3-8.49,32.49h53.59Z"/>
    <path d="M1465.24,822.08v-12.85c5.17-.33,9.17-1.7,12-4.12,2.83-2.43,4.24-6.79,4.24-13.1v-50.2c0-5.49-.4-10.43-1.21-14.79-.81-4.37-2.18-8.04-4.12-11.03-1.94-2.99-4.53-5.21-7.76-6.67-3.24-1.46-7.27-1.94-12.13-1.46-5.66.49-10.63,2.55-14.91,6.18-4.29,3.64-7.72,8.04-10.31,13.22v64.75c0,6.3,1.41,10.67,4.24,13.1,2.83,2.43,6.83,3.8,12,4.12v12.85h-74.69v-12.85c5.66-.33,9.98-1.7,12.97-4.12,2.99-2.43,4.49-6.79,4.49-13.1v-72.51c0-5.17-1.5-8.81-4.49-10.91-2.99-2.1-7.32-3.31-12.97-3.64v-12.85h58.44v11.88c3.72-3.88,8.28-7.11,13.7-9.7,5.41-2.58,11.03-4.12,16.85-4.61,19.56-1.61,34.59,2.14,45.11,11.28,10.51,9.14,15.76,22.76,15.76,40.86v50.2c0,6.3,1.49,10.67,4.49,13.1,2.99,2.43,7.31,3.8,12.97,4.12v12.85h-74.69Z"/>
    <path d="M1690.28,758.3v3.64c0,1.13-.08,2.27-.24,3.4h-94.33c.81,14.39,3.76,25.02,8.85,31.89,5.09,6.87,12.25,10.87,21.46,12,10.51,1.29,19.96.2,28.37-3.27,8.4-3.48,15.68-8.61,21.83-15.4l10.43,8.24c-7.44,9.22-16.61,16.25-27.52,21.1-10.91,4.85-23.16,7.19-36.74,7.03-10.19,0-19.44-1.82-27.77-5.46-8.33-3.64-15.44-8.57-21.34-14.79-5.9-6.22-10.51-13.46-13.82-21.7-3.32-8.24-4.97-17.13-4.97-26.67,0-10.19,1.7-19.48,5.09-27.89,3.4-8.4,8.12-15.64,14.19-21.7,6.06-6.06,13.25-10.75,21.58-14.06,8.32-3.31,17.34-4.97,27.04-4.97s18.71,1.66,27.04,4.97c8.33,3.32,15.52,8,21.58,14.06s10.79,13.3,14.19,21.7c3.4,8.41,5.09,17.7,5.09,27.89ZM1649.3,748.36c0-13.74-2.51-24.21-7.52-31.4-5.01-7.19-11.48-10.79-19.4-10.79-7.28,0-13.34,3.24-18.19,9.7-4.85,6.47-7.68,17.3-8.49,32.49h53.59Z"/>
  </g>
  <rect x="686.35" y="440.31" width="166.81" height="463.53" rx="20" ry="20"/>
  <rect x="906.88" y="65.39" width="40" height="383.61" rx="20" ry="20" transform="translate(5.74 534.24) rotate(-32.25)"/>
  <rect x="1178.65" y="341.62" width="83.05" height="1043.53" rx="20" ry="20" transform="translate(356.79 2083.55) rotate(-90)"/>
</svg>