<svg width="22" height="21" viewBox="0 0 22 21" fill="none" xmlns="http://www.w3.org/2000/svg">
<path d="M7.24325 6.33992L0.863254 7.26492L0.750254 7.28792C0.579193 7.33333 0.423249 7.42333 0.298346 7.54872C0.173444 7.67412 0.0840577 7.83041 0.0393163 8.00165C-0.00542499 8.17289 -0.00391854 8.35293 0.0436818 8.5234C0.0912821 8.69386 0.183271 8.84864 0.310254 8.97192L4.93225 13.4709L3.84225 19.8259L3.82925 19.9359C3.81878 20.1128 3.85552 20.2894 3.9357 20.4474C4.01589 20.6055 4.13664 20.7394 4.28559 20.8354C4.43454 20.9315 4.60634 20.9862 4.7834 20.994C4.96046 21.0018 5.13642 20.9625 5.29325 20.8799L10.9993 17.8799L16.6923 20.8799L16.7923 20.9259C16.9573 20.9909 17.1367 21.0109 17.312 20.9837C17.4873 20.9565 17.6522 20.8832 17.7898 20.7712C17.9275 20.6592 18.0328 20.5127 18.0951 20.3466C18.1574 20.1804 18.1743 20.0008 18.1443 19.8259L17.0533 13.4709L21.6773 8.97092L21.7553 8.88592C21.8667 8.74869 21.9397 8.58438 21.967 8.40972C21.9942 8.23506 21.9747 8.0563 21.9103 7.89165C21.846 7.72701 21.7392 7.58235 21.6007 7.47244C21.4623 7.36252 21.2972 7.29126 21.1223 7.26592L14.7423 6.33992L11.8903 0.559923C11.8077 0.392457 11.68 0.251438 11.5214 0.152827C11.3629 0.0542165 11.1799 0.00195313 10.9933 0.00195312C10.8066 0.00195313 10.6236 0.0542165 10.4651 0.152827C10.3065 0.251438 10.1788 0.392457 10.0963 0.559923L7.24325 6.33992Z" fill="#959595"/>
</svg>
