<svg width="34" height="34" viewBox="0 0 34 34" fill="none" xmlns="http://www.w3.org/2000/svg">
<g clip-path="url(#clip0_2688_31309)">
<path d="M10.333 10.6667C10.333 12.4348 11.0354 14.1305 12.2856 15.3807C13.5359 16.631 15.2316 17.3333 16.9997 17.3333C18.7678 17.3333 20.4635 16.631 21.7137 15.3807C22.964 14.1305 23.6663 12.4348 23.6663 10.6667C23.6663 8.89856 22.964 7.20286 21.7137 5.95262C20.4635 4.70238 18.7678 4 16.9997 4C15.2316 4 13.5359 4.70238 12.2856 5.95262C11.0354 7.20286 10.333 8.89856 10.333 10.6667Z" stroke="#111111" stroke-width="2" stroke-linecap="round" stroke-linejoin="round"/>
<path d="M7 29V25.6667C7 23.8986 7.70238 22.2029 8.95262 20.9526C10.2029 19.7024 11.8986 19 13.6667 19H20.3333C22.1014 19 23.7971 19.7024 25.0474 20.9526C26.2976 22.2029 27 23.8986 27 25.6667V29" stroke="#111111" stroke-width="2" stroke-linecap="round" stroke-linejoin="round"/>
</g>
<defs>
<clipPath id="clip0_2688_31309">
<rect width="34" height="34" fill="white"/>
</clipPath>
</defs>
</svg>
